<?xml version="1.0" encoding="utf-8"?>
<!-- Generator: Adobe Illustrator 22.1.0, SVG Export Plug-In . SVG Version: 6.00 Build 0)  -->
<svg version="1.1" id="Layer_1" xmlns="http://www.w3.org/2000/svg" xmlns:xlink="http://www.w3.org/1999/xlink" x="0px" y="0px"
	 viewBox="0 0 60.8 17" style="enable-background:new 0 0 60.8 17;" xml:space="preserve">
<g>
	<path id="SVGID_2_" d="M1.3,0.7C0.8,0.7,0.4,1,0.4,1.5v13.2c0,0.3,0.5,0.4,0.6,0.1l2.7-6.7C3.8,8,3.9,8,4,8.1l1.7,4.2
		c0,0.1,0,0.2,0,0.3l-1.4,3.4c0,0.1,0,0.2,0.2,0.2h4.6c0.1,0,0.2-0.1,0.2-0.2L5,5.7C4.9,5.6,5,5.4,5.2,5.4h3.3
		c0.1,0,0.2,0.1,0.2,0.1c0.2,0.4,0.9,2.2,3.8,9.4c0.1,0.3,0.6,0.2,0.6-0.1V1.5c0-0.5-0.4-0.8-0.8-0.8H1.3z"/>
	<g>
		<path d="M20.9,13.3h-2.3l-0.5,1.6h-1.4l2.3-6.6h1.6l2.3,6.6h-1.5L20.9,13.3z M18.9,12.3h1.7l-0.8-2.7h0L18.9,12.3z"/>
		<path d="M24.9,14.9h-1.4V8.3h2.7c1.5,0,2.4,0.8,2.4,2.1c0,0.8-0.4,1.6-1.2,1.9l1.4,2.6h-1.6L26,12.5h-1.1V14.9z M24.9,11.5h1.2
			c0.7,0,1.1-0.4,1.1-1c0-0.6-0.4-1-1.1-1h-1.2V11.5z"/>
	</g>
	<g>
		<path d="M33.4,14.9l-2.5-6.6h0.7l2.1,5.8h0l2.1-5.8h0.7L34,14.9H33.4z"/>
		<path d="M37.2,14.9V8.3h0.6v6.6H37.2z"/>
		<path d="M39.4,13.1c0.1,0.8,0.8,1.3,1.8,1.3c1,0,1.7-0.5,1.7-1.3c0-0.6-0.4-1-1.4-1.2l-0.8-0.2c-1.2-0.3-1.8-0.8-1.8-1.7
			c0-1.1,1-1.8,2.3-1.8c1.3,0,2.2,0.8,2.3,1.8h-0.6c-0.1-0.7-0.7-1.2-1.7-1.2c-0.9,0-1.6,0.5-1.6,1.2c0,0.6,0.4,0.9,1.4,1.1l0.7,0.2
			c1.3,0.3,1.9,0.8,1.9,1.8c0,1.2-0.9,1.9-2.4,1.9c-1.4,0-2.3-0.8-2.4-1.9H39.4z"/>
		<path d="M45.1,12.5c0,1.1,0.7,1.9,1.9,1.9c1.2,0,1.9-0.8,1.9-1.9V8.3h0.6v4.3c0,1.4-1,2.4-2.6,2.4c-1.6,0-2.5-1-2.5-2.4V8.3h0.6
			V12.5z"/>
		<path d="M54.3,12.9h-2.8l-0.7,2h-0.7l2.5-6.6h0.6l2.5,6.6h-0.7L54.3,12.9z M51.8,12.3h2.4L53,9.1h0L51.8,12.3z"/>
		<path d="M60.4,14.9h-3.9V8.3h0.6v6h3.3V14.9z"/>
	</g>
</g>
</svg>
